<svg width="1080" height="1080" viewBox="0 0 1080 1080" fill="none" xmlns="http://www.w3.org/2000/svg">
<rect width="1080" height="1080" fill="white"/>
<path d="M425.329 651.579C406.944 539.493 447.428 437.967 540.877 433.137C636.775 428.181 658.765 558.386 643.657 651.579C581.095 662.406 482.145 660.495 425.329 651.579Z" fill="black" stroke="black"/>
<path d="M291.959 810.694L311.096 766.893L331.973 714.331C333.132 712.579 338.584 707.322 351.11 700.314C363.636 693.306 445.824 658.771 498.986 653.008C500.146 655.928 507.685 662.119 528.562 663.521C549.438 664.922 568.575 652.424 575.534 646C595.799 646 690.356 681.041 690.356 681.041C694.416 688.634 705.666 708.374 718.192 726.595C730.718 744.817 762.845 776.237 777.342 789.669L793 798.43C793 798.43 752.794 797.343 729.181 792.229C705.568 787.115 636.425 766.893 636.425 766.893C636.425 766.893 630.605 794.595 628.347 810.694C625.59 830.344 625.986 858 625.986 858C563.936 855.664 433.573 859.051 436.356 856.248C439.14 853.445 442.735 793.758 441.575 766.893C429.977 775.069 397.038 795.276 358.068 810.694C319.099 826.112 293.119 825.295 285 822.959L291.959 810.694Z" fill="#42BDC2" stroke="black" stroke-width="4"/>
<path d="M460.531 497C221.9 678.383 231.471 788.873 279.325 824C304.847 804.073 310.164 780.357 309.313 771.629L387.155 610.684C423.524 587.691 430.032 572.363 433.095 559.59C436.158 546.816 464.998 505.303 460.531 497Z" fill="white" stroke="black" stroke-width="4"/>
<path d="M656.446 600.376C625.305 577.447 601.566 487.643 618.796 480C627.985 480 664.741 548.574 684.523 583.816C766.204 661.519 856.409 813.109 798.749 799.091C748.974 786.99 667.294 662.793 656.446 600.376Z" fill="white" stroke="black" stroke-width="4"/>
<path d="M468.947 548.802C478.511 481.902 523.139 498.468 535.89 509.937C577.33 476.168 604.107 522.042 599.007 548.802C625.146 544.342 611.758 572.376 599.007 572.376C593.906 599.773 595.181 657.752 530.152 660.938C484.908 663.155 472.135 605.295 471.498 572.376C465.76 570.252 452.615 572.376 453.009 558.996C453.519 541.666 461.297 541.156 468.947 548.802Z" fill="white" stroke="black" stroke-width="4" stroke-linecap="round" stroke-linejoin="round"/>
<path d="M303.827 640.745C286.645 593.88 280.66 496.702 384.387 464.565M384.387 464.565C390.025 462.818 395.987 461.263 402.289 459.919L384.387 464.565ZM384.387 464.565C375.436 383.883 453.887 285.185 594.099 374.036M594.099 374.036C598.904 377.081 603.805 380.36 608.805 383.883L594.099 374.036ZM594.099 374.036C670.184 325.737 840.895 409.441 747.13 537.873M747.13 537.873C745.081 542.239 742.878 546.71 740.514 551.291L747.13 537.873ZM747.13 537.873C783.926 545.54 839.232 584.9 766.089 681" stroke="black" stroke-width="4" stroke-linecap="round" stroke-linejoin="round"/>
<path d="M730 415L782 393" stroke="black" stroke-width="2"/>
<path d="M727 450L827 405" stroke="black" stroke-width="4" stroke-linecap="round"/>
<path d="M528 362V328" stroke="black" stroke-width="2"/>
<path d="M521 393L495 299" stroke="black" stroke-width="4" stroke-linecap="round"/>
<path d="M373 524L291 446" stroke="black" stroke-width="4" stroke-linecap="round"/>
<path d="M367 490L337 457" stroke="black" stroke-width="2"/>
</svg>
