<svg width="1080" height="1080" viewBox="0 0 1080 1080" fill="none" xmlns="http://www.w3.org/2000/svg">
<rect width="1080" height="1080" fill="white"/>
<path d="M511.826 359.791C470.653 384.613 454.901 413.454 452.172 424.772C433.457 429.065 391.699 446.55 374.388 482.143C357.076 517.737 383.478 563.411 397.904 585.071C395.85 597.263 393.421 627.633 402.454 646.06M511.826 359.791C552.999 334.969 606.571 345.155 628.21 353.351C670.319 335.008 758.591 313.905 799.569 353.351C857.134 408.764 847.191 451.642 837.584 467.508C858.443 482.143 881.57 524.773 865.779 562.825C844.109 615.046 803.006 614.147 790.335 609.073C787.8 613.952 759.923 640.686 735.359 640.686C710.796 640.686 694.615 636.002 678.629 625.465C667.322 645.174 656.087 678.692 621.9 689.275C565.17 706.838 531.321 679.234 507.148 670.062C485.313 674.55 436.264 679.195 414.742 661.866C409.421 657.582 405.42 652.112 402.454 646.06M511.826 359.791C501.104 347.887 470.653 326.305 434.627 335.203C398.6 344.102 379.457 367.401 374.388 377.939C348.655 373.451 290.521 374.778 263.852 415.991C237.183 457.204 246.112 477.265 253.91 482.143C232.661 493.656 193.746 521.377 215.31 575.81C228.762 609.764 270.286 616.789 283.152 616.789C283.932 637.279 295.083 678.258 333.449 678.258C371.815 678.258 395.438 656.793 402.454 646.06" stroke="black" stroke-width="4"/>
<path d="M576.719 610.65C532.671 682.097 447.27 563.057 449.027 521.341C471.285 509.589 474.214 521.341 478.9 526.629C481.719 529.81 511.701 527.021 531.031 526.629C522.83 496.663 560.904 518.403 549.774 541.318C588.434 567.758 604.639 557.573 614.206 548.956L633.536 578.922C638.222 591.848 606.006 627.689 601.32 621.813C597.571 617.113 583.357 612.413 576.719 610.65Z" stroke="black" stroke-width="4"/>
<path d="M578.195 476.385C572.359 448.354 603.552 442.563 614.959 452.442C645.304 478.721 608.727 503.248 608.727 503.248C622.545 515.896 627.636 541.492 613.208 551.134C586.923 568.698 560.698 547.643 549.6 542.374C550.768 535.348 554.269 516.74 536.882 512.383C525.667 509.573 531.041 522.922 531.625 528.191H485.992C476.506 528.191 473.448 515.896 465.036 515.896C456.625 515.896 451.018 520.58 449.266 522.922C446.733 522.922 443.944 519.472 443.448 510.839C443.143 505.534 443.705 498.271 445.727 488.648C452.736 455.277 493.434 438.803 517.504 442.514C549.6 447.464 568.7 464.41 578.195 476.385Z" fill="#040404"/>
<path d="M449.266 522.922C446.733 522.922 443.944 519.472 443.448 510.839C435.649 514.538 424.368 526.373 441.642 544.126C432.888 531.862 446.542 523.311 449.266 522.922Z" fill="#040404"/>
<path d="M578.195 476.385L576.627 477.628C577.203 478.354 578.203 478.589 579.043 478.196C579.882 477.803 580.342 476.885 580.153 475.977L578.195 476.385ZM614.959 452.442L613.65 453.954L614.959 452.442ZM608.727 503.248L607.613 501.587C607.104 501.928 606.779 502.485 606.733 503.097C606.687 503.709 606.924 504.309 607.377 504.723L608.727 503.248ZM613.208 551.134L614.319 552.796L613.208 551.134ZM549.6 542.374L547.627 542.046C547.481 542.927 547.936 543.798 548.742 544.181L549.6 542.374ZM536.882 512.383L537.368 510.443V510.443L536.882 512.383ZM531.625 528.191V530.191C532.193 530.191 532.735 529.949 533.115 529.525C533.494 529.101 533.675 528.536 533.612 527.971L531.625 528.191ZM449.266 522.922L449.549 524.902C450.074 524.826 450.549 524.545 450.867 524.12L449.266 522.922ZM445.727 488.648L447.684 489.059L445.727 488.648ZM517.504 442.514L517.809 440.538L517.504 442.514ZM443.448 510.839L445.445 510.725L443.448 510.839ZM441.642 544.126L440.208 545.521C440.937 546.27 442.121 546.331 442.924 545.661C443.726 544.991 443.877 543.815 443.269 542.964L441.642 544.126ZM429.422 556.25C429.99 557.197 431.219 557.505 432.166 556.937C433.113 556.369 433.421 555.14 432.853 554.193L429.422 556.25ZM580.153 475.977C578.772 469.344 579.613 464.213 581.642 460.362C583.678 456.498 587.007 453.739 590.912 452.03C594.829 450.316 599.274 449.686 603.398 450.065C607.54 450.446 611.194 451.828 613.65 453.954L616.268 450.93C613.02 448.117 608.498 446.518 603.765 446.082C599.014 445.645 593.886 446.362 589.309 448.365C584.72 450.373 580.631 453.7 578.104 458.497C575.569 463.306 574.7 469.411 576.237 476.793L580.153 475.977ZM613.65 453.954C620.962 460.287 624.05 466.337 624.806 471.744C625.565 477.173 624.015 482.256 621.484 486.711C618.948 491.174 615.484 494.901 612.616 497.531C611.189 498.84 609.925 499.863 609.022 500.556C608.571 500.902 608.211 501.165 607.968 501.338C607.846 501.425 607.754 501.49 607.694 501.531C607.664 501.552 607.642 501.567 607.628 501.577C607.621 501.581 607.617 501.584 607.614 501.586C607.613 501.587 607.612 501.587 607.612 501.587C607.612 501.587 607.612 501.587 607.612 501.587C607.613 501.587 607.613 501.587 608.727 503.248C609.841 504.909 609.842 504.908 609.843 504.908C609.843 504.907 609.844 504.906 609.846 504.906C609.848 504.904 609.85 504.903 609.853 504.9C609.86 504.896 609.868 504.89 609.879 504.883C609.9 504.869 609.93 504.848 609.969 504.822C610.045 504.769 610.154 504.692 610.293 504.593C610.571 504.395 610.967 504.105 611.457 503.729C612.436 502.978 613.792 501.88 615.32 500.479C618.362 497.689 622.146 493.641 624.961 488.688C627.781 483.726 629.685 477.75 628.768 471.19C627.847 464.607 624.128 457.737 616.268 450.93L613.65 453.954ZM607.377 504.723C613.917 510.709 618.437 519.83 619.576 528.577C620.719 537.344 618.438 545.233 612.097 549.471L614.319 552.796C622.406 547.393 624.794 537.663 623.543 528.06C622.289 518.436 617.355 508.434 610.077 501.772L607.377 504.723ZM612.097 549.471C599.626 557.804 587.191 557.02 576.339 553.418C570.893 551.611 565.875 549.1 561.49 546.684C557.212 544.327 553.295 541.914 550.458 540.567L548.742 544.181C551.454 545.468 554.978 547.663 559.56 550.187C564.034 552.652 569.296 555.295 575.079 557.215C586.686 561.067 600.506 562.027 614.319 552.796L612.097 549.471ZM551.573 542.702C552.146 539.258 553.394 532.49 552.164 526.005C551.542 522.726 550.272 519.422 547.892 516.624C545.496 513.807 542.076 511.623 537.368 510.443L536.396 514.323C540.381 515.322 543.044 517.098 544.845 519.215C546.662 521.351 547.704 523.955 548.234 526.751C549.309 532.415 548.223 538.464 547.627 542.046L551.573 542.702ZM537.368 510.443C534.33 509.682 531.729 509.835 529.924 511.427C528.185 512.961 527.821 515.297 527.829 517.265C527.837 519.311 528.254 521.562 528.666 523.515C529.102 525.584 529.505 527.223 529.637 528.411L533.612 527.971C533.452 526.524 532.965 524.518 532.58 522.69C532.17 520.747 531.835 518.848 531.829 517.249C531.822 515.573 532.181 514.77 532.57 514.427C532.893 514.141 533.826 513.679 536.396 514.323L537.368 510.443ZM531.625 526.191H485.992V530.191H531.625V526.191ZM485.992 526.191C482.2 526.191 479.616 523.794 476.542 520.646C473.722 517.759 470.247 513.896 465.036 513.896V517.896C468.237 517.896 470.497 520.181 473.68 523.441C476.609 526.44 480.298 530.191 485.992 530.191V526.191ZM465.036 513.896C455.889 513.896 449.726 518.968 447.664 521.723L450.867 524.12C452.31 522.191 457.362 517.896 465.036 517.896V513.896ZM447.684 489.059C451.034 473.107 462.466 461.062 476.19 453.423C489.94 445.769 505.686 442.716 517.2 444.491L517.809 440.538C505.253 438.602 488.614 441.929 474.245 449.928C459.85 457.94 447.428 470.818 443.769 488.237L447.684 489.059ZM517.2 444.491C548.689 449.347 567.37 465.952 576.627 477.628L579.762 475.142C570.029 462.868 550.512 445.581 517.809 440.538L517.2 444.491ZM449.266 520.922C449.009 520.922 448.228 520.747 447.342 519.148C446.466 517.566 445.683 514.876 445.445 510.725L441.451 510.954C441.709 515.435 442.568 518.786 443.844 521.087C445.109 523.371 446.989 524.922 449.266 524.922V520.922ZM445.445 510.725C445.153 505.648 445.686 498.57 447.684 489.059L443.769 488.237C441.725 497.972 441.134 505.42 441.451 510.954L445.445 510.725ZM442.591 509.032C438.387 511.026 433.072 515.274 431.222 521.655C429.319 528.217 431.263 536.328 440.208 545.521L443.075 542.731C434.747 534.171 433.695 527.488 435.063 522.769C436.484 517.87 440.71 514.351 444.305 512.646L442.591 509.032ZM442.724 508.975C437.143 511.143 429.751 516.096 425.781 524.033C421.736 532.119 421.431 542.921 429.422 556.25L432.853 554.193C425.438 541.826 426.027 532.481 429.358 525.823C432.764 519.014 439.231 514.623 444.172 512.704L442.724 508.975ZM448.983 520.942C448.34 521.034 447.612 521.313 446.934 521.637C446.215 521.981 445.402 522.449 444.562 523.026C442.889 524.175 441.017 525.819 439.523 527.908C438.024 530.004 436.868 532.606 436.758 535.621C436.648 538.658 437.608 541.918 440.014 545.288L443.269 542.964C441.298 540.202 440.682 537.794 440.756 535.766C440.83 533.717 441.616 531.858 442.777 530.234C443.943 528.604 445.447 527.271 446.827 526.323C447.513 525.852 448.146 525.492 448.66 525.246C448.917 525.123 449.132 525.035 449.298 524.976C449.476 524.914 449.554 524.901 449.549 524.902L448.983 520.942Z" fill="black"/>
<path d="M576.518 754.158C564.346 708.699 586.662 646.564 599.341 621.178C621.345 615.555 631.917 590.716 634.453 579C756.642 592.591 773.535 755.33 766.708 835H620.993C629.888 815.785 627.821 794.969 625.675 786.963C618.184 770.092 589.783 758.063 576.518 754.158Z" fill="#7DAE61"/>
<path d="M625.675 786.963C618.184 770.092 589.783 758.063 576.518 754.158C564.346 708.699 586.662 646.564 599.341 621.178C621.345 615.555 631.917 590.716 634.453 579C756.642 592.591 773.535 755.33 766.708 835H620.993C629.888 815.785 627.821 794.969 625.675 786.963ZM625.675 786.963C633.673 780.91 653.999 752.166 671.32 685.618" stroke="black" stroke-width="4"/>
<path d="M521.052 569.676C516.38 550.376 516.964 534 521.052 534C546.165 534 581.848 680.34 595.026 759.755L618 775.547C613.328 796.602 605.735 825.201 583.543 835.202C539.732 854.945 524.556 707.118 543.829 634.596C450.969 611.786 428.776 471.42 521.052 569.676Z" fill="white"/>
<path d="M597.559 775.547C596.795 770.599 595.949 765.314 595.026 759.755M595.026 759.755C581.848 680.34 546.165 534 521.052 534C516.964 534 516.38 550.376 521.052 569.676C428.776 471.42 450.969 611.786 543.829 634.596C524.556 707.118 539.732 854.945 583.543 835.202C605.735 825.201 613.328 796.602 618 775.547L595.026 759.755Z" stroke="black" stroke-width="4" stroke-linecap="round" stroke-linejoin="round"/>
<path d="M428.284 732.632C426.203 736.694 423.427 739.805 420.716 741.588C417.948 743.41 415.648 743.628 414.126 742.848C412.604 742.069 411.437 740.075 411.297 736.764C411.16 733.522 412.062 729.452 414.143 725.389C416.224 721.326 419 718.215 421.711 716.432C424.479 714.611 426.779 714.393 428.301 715.172C429.823 715.952 430.99 717.946 431.13 721.256C431.267 724.498 430.365 728.569 428.284 732.632Z" stroke="black" stroke-width="4"/>
<path d="M409.566 784.105C407.485 788.168 404.709 791.278 401.998 793.062C399.23 794.883 396.93 795.101 395.408 794.321C393.886 793.542 392.719 791.548 392.58 788.237C392.443 784.995 393.345 780.925 395.426 776.862C397.507 772.799 400.283 769.688 402.994 767.905C405.762 766.084 408.062 765.866 409.584 766.645C411.106 767.425 412.273 769.419 412.412 772.729C412.549 775.971 411.647 780.042 409.566 784.105Z" stroke="black" stroke-width="4"/>
<path d="M503.154 756.028C501.073 760.091 498.297 763.202 495.586 764.985C492.818 766.806 490.518 767.025 488.996 766.245C487.474 765.466 486.307 763.472 486.167 760.161C486.03 756.919 486.932 752.849 489.013 748.786C491.094 744.723 493.87 741.612 496.581 739.829C499.349 738.008 501.649 737.79 503.171 738.569C504.693 739.349 505.86 741.343 506 744.653C506.137 747.895 505.235 751.966 503.154 756.028Z" stroke="black" stroke-width="4"/>
</svg>
