<svg width="1080" height="1080" viewBox="0 0 1080 1080" fill="none" xmlns="http://www.w3.org/2000/svg">
<rect width="1080" height="1080" fill="white"/>
<path d="M227.255 438.78C226.923 438.671 226.687 438.663 226.655 438.661C226.647 438.661 226.64 438.656 226.635 438.656C226.635 438.661 226.633 438.661 226.374 438.661L199.251 436.219C199.251 436.219 204.3 432.542 206.159 430.481C206.168 430.476 206.176 430.466 206.186 430.456C206.196 430.441 206.213 430.431 206.223 430.419L206.221 430.404C206.635 429.955 206.893 429.364 206.883 428.707C206.876 427.858 206.422 427.153 205.769 426.712L205.764 426.652L194.406 416.306L206.754 413.825C208.129 413.813 209.225 412.691 209.21 411.319C209.21 410.825 206.699 403.901 206.699 403.901L219.092 406.382C220.462 406.367 221.566 405.141 221.549 403.769C221.546 403.241 221.34 402.782 221.058 402.38L221.08 402.333L201.849 376.656C201.849 376.656 209.292 376.614 211.798 376.611C214.135 376.609 214.254 374.13 214.254 374.13V356.762L228.409 368.771C228.409 368.771 230.141 369.954 231.734 368.242C233.322 366.528 239.177 359.244 239.177 359.244L249.186 391.026L249.233 391.034C249.377 391.503 249.61 391.952 250.027 392.277C251.101 393.133 252.659 392.949 253.513 391.875L258.914 379.092C258.914 379.092 263.328 388.23 263.722 388.535C264.797 389.389 266.59 388.898 267.206 388.133L276.282 379.092L278.467 393.795L278.512 393.835C278.46 394.619 278.735 395.415 279.4 395.944C279.914 396.356 280.537 396.512 281.142 396.457L281.154 396.472C281.172 396.47 281.189 396.46 281.204 396.46C281.216 396.46 288.687 396.46 288.687 396.46L274.299 417.79C274.297 417.792 274.294 417.792 274.292 417.792C274.287 417.797 274.289 417.807 274.284 417.812C274.267 417.837 274.126 418.025 274.004 418.358C273.565 419.365 273.793 420.566 274.694 421.283C276.641 422.821 281.244 426.233 281.244 426.233L253.952 433.676L229.141 448.563C229.141 448.563 229.163 443.601 229.141 441.117C229.131 439.968 228.32 439.048 227.255 438.78Z" fill="#ED4F39"/>
<path fill-rule="evenodd" clip-rule="evenodd" d="M257.822 408.937C260.988 406.002 263.831 402.725 266.357 398.941C265.957 401.174 265.186 403.39 264.173 405.459C263.159 407.538 261.923 409.523 260.499 411.354C260.011 411.989 259.505 412.61 258.982 413.216C260.655 414.142 262.672 414.908 265.007 415.794C265.446 415.961 265.896 416.132 266.357 416.309C264.61 417.589 262.516 418.07 260.378 418.073C258.745 418.046 257.024 417.648 255.466 416.811C253.86 418.297 252.206 419.619 250.24 420.874L250.2 420.899L250.073 420.963C249.96 421.022 249.846 421.082 249.733 421.141C248.207 421.938 246.682 422.734 245.121 423.462L244.96 423.533L244.935 423.543C242.154 424.501 239.673 424.992 237.001 425.248C235.275 425.424 233.547 425.499 231.826 425.465C231.767 426.779 231.474 428.089 230.94 429.277C230.049 431.232 228.585 432.843 226.66 433.676C226.694 433.4 226.728 433.131 226.761 432.867C226.979 431.15 227.162 429.696 227.156 428.317C227.172 427.198 227.101 426.147 226.966 425.098C225.103 424.853 223.263 424.472 221.461 423.997C218.968 423.31 216.539 422.442 214.254 421.271C216.812 421.479 219.313 421.678 221.796 421.742C223.316 421.801 224.831 421.791 226.334 421.745C226.059 420.61 225.725 419.444 225.368 418.198C224.983 416.854 224.572 415.417 224.179 413.828C226.196 414.458 227.774 415.778 229.071 417.331C230.032 418.525 230.799 419.918 231.28 421.44C232.994 421.271 234.694 421.049 236.37 420.75C238.632 420.295 241.061 419.778 243.001 419.042C244.511 418.238 246.058 417.499 247.604 416.759C247.675 416.725 247.746 416.691 247.817 416.657C249.185 415.81 250.638 414.789 252.041 413.754C251.276 412.636 250.754 411.374 250.528 410.121C250.141 407.93 250.439 405.781 251.471 403.903C251.828 404.545 252.152 405.16 252.46 405.746C253.051 406.869 253.585 407.882 254.185 408.766C254.69 409.532 255.211 410.188 255.767 410.77C256.465 410.175 257.152 409.566 257.822 408.937Z" fill="black" fill-opacity="0.46"/>
<path d="M279.398 449.054C273.364 445.169 244.028 431.195 224.179 376.611C239.066 433.676 268.705 450.223 275.25 455.237C276.885 456.487 279.224 456.177 280.475 454.545C281.725 452.912 281.418 450.57 279.783 449.32C279.706 449.26 279.626 449.203 279.542 449.151L279.398 449.054Z" fill="#802B1F"/>
<path d="M555.404 751.892V881.7" stroke="#ED4F39" stroke-width="9.92435" stroke-miterlimit="10"/>
<path d="M555.404 777.796L448.073 806.553L469.323 734.309L297.128 699.031C313.786 670.194 312.272 633.849 292.649 606.414L266.681 570.117L310.885 564.011C344.297 559.404 371.748 535.525 381.217 503.595L478.792 571.886L438.62 377.9C442.558 378.41 446.527 378.665 450.48 378.665C482.665 378.665 513.001 361.545 529.643 333.983L555.404 291.357L581.165 333.983C597.807 361.545 628.143 378.665 660.328 378.665C664.281 378.665 668.25 378.41 672.188 377.9L632 571.918L729.575 503.627C739.044 535.541 766.495 559.436 799.907 564.043L844.111 570.149L818.143 606.446C798.536 633.881 797.006 670.226 813.664 699.063L641.485 734.325L662.735 806.569L555.404 777.796Z" fill="#ED4F39"/>
<path d="M524.39 301.803C547.246 321.802 540.517 357.628 509.504 348.942L463.604 310.485C463.604 310.485 479.006 278.775 508.263 291.235C505.782 279.473 518.24 272.31 528.112 275.752C536.522 278.684 541.758 285.676 536.796 294.36C532.826 301.307 523.826 299.736 519.821 298.082C521.316 299.208 522.839 300.446 524.39 301.803Z" fill="#ED9A39"/>
<path d="M519.821 298.082C521.316 299.208 522.839 300.446 524.39 301.803C547.246 321.802 540.517 357.628 509.504 348.942L463.604 310.485C463.604 310.485 479.006 278.775 508.263 291.235M519.821 298.082C523.826 299.736 532.826 301.307 536.796 294.36C541.758 285.676 536.522 278.684 528.112 275.752C518.24 272.31 505.782 279.473 508.263 291.235M519.821 298.082C515.756 295.019 511.903 292.785 508.263 291.235" stroke="black" stroke-width="4.96218"/>
<path d="M474.768 379.958C454.92 377.973 453.679 352.666 456.16 334.057C458.642 315.449 463.604 310.487 463.604 310.487L468.566 314.209C472.288 312.969 474.768 311.108 484.693 310.487C504.542 309.247 505.782 341.501 511.985 334.058C518.188 326.614 521.909 331.577 523.15 340.26C524.142 347.207 516.947 345.636 513.225 342.742C504.955 356.801 494.617 381.943 474.768 379.958Z" fill="white" stroke="black" stroke-width="4.96218" stroke-linejoin="round"/>
<path d="M463.604 310.487C460.296 308.006 453.679 311.728 451.198 314.209C444.728 320.679 448.717 327.855 449.958 329.095C451.198 326.614 453.679 322.893 457.401 321.652C464.059 319.433 466.085 321.239 466.085 321.652" stroke="black" stroke-width="4.96218"/>
<path d="M590.139 417.174C554.412 398.318 525.631 395.258 524.39 399.807C532.661 411.799 553.419 440.248 570.291 458.112C587.162 475.976 670.775 472.999 710.472 469.277C710.472 469.277 711 460.934 710.472 455.631C645.964 453.15 625.867 436.03 590.139 417.174Z" fill="#FFFEF9" stroke="black" stroke-width="4.96218"/>
<path d="M389.171 424.617C358.406 431.564 317.633 434.955 301.092 435.782C301.092 444.466 301.092 449.428 298.611 456.872C344.263 471.758 435.071 468.037 474.769 464.315C475.596 467.21 480.971 484.577 488.415 490.366C499.58 499.05 513.225 500.291 513.225 500.291C513.225 500.291 542.585 544.537 554.163 554.875C570.291 547.431 593.861 530.064 596.342 521.38C591.38 512.696 560.366 414.693 520.669 397.325C480.971 379.958 427.628 415.934 389.171 424.617Z" fill="#FFFEF9"/>
<path d="M474.769 464.315C475.596 467.21 480.971 484.577 488.415 490.366C499.58 499.05 513.225 500.291 513.225 500.291C513.225 500.291 542.585 544.537 554.163 554.875C570.291 547.431 593.861 530.064 596.342 521.38C591.38 512.696 560.366 414.693 520.669 397.325C480.971 379.958 427.628 415.934 389.171 424.617C358.406 431.564 317.633 434.955 301.092 435.782C301.092 444.466 301.092 449.428 298.611 456.872C344.263 471.758 435.071 468.037 474.769 464.315ZM474.769 464.315L503.301 456.872" stroke="black" stroke-width="4.96218"/>
<path d="M596.342 521.483C639.761 519.002 726.847 560.436 732.802 726.173C782.424 739.819 824.602 805.567 855.616 845.265L848.173 857.67C806.482 839.352 732.282 802.798 691.772 773.21C662.857 774.451 604.778 775.94 574.012 762.045C543.247 748.151 565.328 618.142 554.164 554.875C569.05 547.431 591.38 533.785 596.342 521.483Z" fill="#42BDC2"/>
<path d="M732.802 726.173C726.847 560.436 639.761 519.002 596.342 521.483C591.38 533.785 569.05 547.431 554.164 554.875C565.328 618.142 543.247 748.151 574.012 762.045C604.778 775.94 662.857 774.451 691.772 773.21M732.802 726.173C782.424 739.819 824.602 805.567 855.616 845.265L848.173 857.67C806.482 839.352 732.282 802.798 691.772 773.21M732.802 726.173C732.802 726.173 730.321 724.829 721.637 723.589M605.026 592.194C609.715 604.788 615.923 622.503 622.765 641.713M622.765 641.713C623.055 661.148 621.401 704.732 617.431 718.626M622.765 641.713C633.598 672.129 646.019 706.29 656.51 729.791M617.431 718.626C633.558 718.626 642.242 723.589 656.51 729.791M617.431 718.626L613.709 731.032M656.51 729.791C659.843 737.259 662.982 743.65 665.813 748.503C669.938 755.576 679.244 764.06 691.772 773.21" stroke="black" stroke-width="4.96218" stroke-linecap="round"/>
<path d="M618.672 717.386C622.641 703.492 624.047 667.35 623.634 647.915L654.647 727.31C648.445 724.829 651.11 724.875 636.039 721.107C631.077 719.867 629.837 718.626 618.672 717.386Z" fill="#ED4F39"/>
<path d="M882.908 846.403C876.953 836.478 862.232 842.268 855.616 846.403L848.172 857.567C853.548 868.319 865.292 891.558 869.262 898.505C873.231 905.452 884.975 923.73 890.351 932C894.072 927.038 900.275 913.64 895.313 899.746C889.11 882.378 890.351 858.808 882.908 846.403Z" stroke="black" stroke-width="4.96218"/>
<path d="M251.47 446.947C257.425 440.993 287.033 437.85 301.092 437.023C301.092 442.812 300.596 454.639 298.611 455.631C296.13 456.872 275.041 474.239 272.56 475.48C270.078 476.72 265.116 472.999 265.116 471.758C265.116 470.518 262.635 469.277 257.673 469.277C252.711 469.277 253.951 465.555 251.47 463.074C249.485 461.089 248.162 460.593 247.749 460.593C246.508 458.526 245.516 452.902 251.47 446.947Z" fill="white" stroke="black" stroke-width="4.96218"/>
<path d="M740.245 450.669C734.29 450.669 717.915 453.977 710.472 455.631V469.277C719.983 468.45 730.321 465.059 740.245 463.074C752.65 460.593 765.056 455.631 762.575 453.15C760.094 450.669 747.688 450.669 740.245 450.669Z" stroke="black" stroke-width="4.96218"/>
<path d="M479.731 380.057C487.174 381.198 489.655 386.161 487.174 393.703" stroke="black" stroke-width="4.96218"/>
<path d="M524.616 397.325C514.692 381.198 514.466 362.59 510.744 347.704C506.196 358.993 495.858 374.13 485.934 380.333C488.415 384.054 489.881 384.054 488.641 390.257L524.616 397.325Z" fill="white" stroke="black" stroke-width="4.96218"/>
</svg>
