<svg width="1080" height="1080" viewBox="0 0 1080 1080" fill="none" xmlns="http://www.w3.org/2000/svg">
<rect width="1080" height="1080" fill="white"/>
<ellipse cx="518" cy="529.5" rx="238" ry="237.5" fill="#42BDC2"/>
<path opacity="0.3" fill-rule="evenodd" clip-rule="evenodd" d="M609.764 555.006C600.392 533.756 589.215 511.673 576.361 489.41C568.24 475.343 559.846 461.891 551.305 449.166L427.255 520.786C434.006 534.545 441.458 548.54 449.58 562.608C462.434 584.871 475.969 605.592 489.686 624.334L609.764 555.006ZM613.249 552.995C603.847 531.718 592.661 509.643 579.826 487.41C571.71 473.355 563.32 459.901 554.777 447.161L696.016 365.617L693.516 361.287L551.97 443.008C492.872 356.279 427.197 303.997 395.393 322.359C363.589 340.721 376.029 423.738 421.59 518.283L292.387 592.879L294.887 597.209L423.783 522.791C430.545 536.559 438.001 550.552 446.116 564.608C458.952 586.84 472.477 607.565 486.202 626.345L355.332 701.903L357.832 706.233L489.187 630.395C544.009 704.132 601.452 746.458 630.548 729.659C659.644 712.861 651.71 641.95 615.263 557.605L758.961 474.641L756.461 470.311L613.249 552.995ZM611.776 559.619L492.675 628.382C512.483 654.981 532.593 677.4 551.504 694.324C568.013 709.097 583.435 719.528 596.796 724.976C610.218 730.449 620.857 730.636 628.548 726.195C636.239 721.754 641.397 712.447 643.368 698.087C645.331 683.792 644.009 665.221 639.469 643.538C634.268 618.698 624.908 590.073 611.776 559.619ZM386.473 408.48C393.014 439.722 406.135 476.952 425.064 516.278L548.496 445.014C523.904 408.958 498.223 378.98 474.437 357.694C457.929 342.921 442.507 332.49 429.146 327.042C415.724 321.57 405.085 321.383 397.393 325.823C389.702 330.264 384.544 339.571 382.573 353.931C380.611 368.226 381.932 386.797 386.473 408.48Z" fill="black"/>
<path d="M328 710C303.847 689.309 284.09 663.945 269.907 635.42C255.724 606.895 247.406 575.793 245.45 543.97C243.493 512.147 247.937 480.253 258.518 450.192C269.098 420.131 285.598 392.518 307.033 369" stroke="black" stroke-width="4" stroke-linecap="round" stroke-linejoin="round"/>
<path d="M728.168 951.188C700.852 951.188 686.601 951.188 679.475 946.437C711.541 932.186 756.672 920.309 775.674 921.497C780.425 925.06 756.672 945.25 728.168 951.188Z" fill="#23268C"/>
<path d="M679.475 946.437L678.662 944.61C677.996 944.906 677.544 945.541 677.482 946.268C677.42 946.994 677.759 947.697 678.365 948.101L679.475 946.437ZM728.168 951.188V953.188H728.375L728.576 953.146L728.168 951.188ZM775.674 921.497L776.874 919.897L776.396 919.538L775.799 919.501L775.674 921.497ZM678.365 948.101C682.392 950.786 688.195 951.992 696.1 952.589C704.061 953.19 714.543 953.188 728.168 953.188V949.188C714.478 949.188 704.176 949.187 696.401 948.6C688.569 948.009 683.684 946.84 680.584 944.773L678.365 948.101ZM728.576 953.146C743.135 950.113 756.447 943.455 765.539 937.09C770.073 933.916 773.654 930.749 775.821 928.059C776.887 926.737 777.735 925.38 778.094 924.086C778.277 923.423 778.363 922.667 778.185 921.9C777.998 921.091 777.544 920.399 776.874 919.897L774.474 923.097C774.399 923.04 774.316 922.923 774.289 922.804C774.271 922.728 774.306 922.777 774.239 923.018C774.096 923.534 773.645 924.385 772.707 925.549C770.866 927.833 767.618 930.752 763.245 933.813C754.522 939.92 741.705 946.325 727.76 949.23L728.576 953.146ZM775.799 919.501C765.954 918.885 749.653 921.635 731.969 926.242C714.214 930.867 694.81 937.433 678.662 944.61L680.287 948.265C696.206 941.19 715.4 934.692 732.978 930.113C750.627 925.515 766.392 922.921 775.55 923.493L775.799 919.501Z" fill="black"/>
<path d="M706.791 891.807C696.102 889.431 685.413 891.807 679.475 895.37C678.287 917.934 675.912 933.374 679.475 946.439C698.478 940.5 724.606 926.248 773.299 920.31C755.485 907.246 735.295 915.56 724.606 914.372C708.858 912.622 709.166 901.308 706.791 891.807Z" fill="#6A8A94" stroke="black" stroke-width="4"/>
<path d="M839.807 402.494C833.869 403.682 815.659 417.934 811.304 423.872L819.617 441.685C821.993 440.498 828.179 435.35 837.432 428.621C850.496 419.121 879 411.993 879 406.056C879 400.119 849.309 403.682 835.057 413.182C835.057 410.807 845.746 401.306 839.807 402.494Z" stroke="black" stroke-width="4"/>
<path d="M692.539 868.053C678.287 873.754 667.598 869.636 664.035 866.865C670.765 858.552 687.313 841.45 699.665 839.549C712.016 837.649 715.104 845.883 715.104 850.238C713.521 853.801 706.791 862.352 692.539 868.053Z" fill="#2E2F6C" stroke="black" stroke-width="4" stroke-linejoin="round"/>
<path d="M681.85 892.994C680.9 886.343 678.287 866.469 677.099 857.364C677.099 857.364 691.351 850.238 704.415 850.238C703.228 864.49 704.415 878.742 704.415 890.618C693.726 888.243 685.413 891.806 681.85 892.994Z" fill="white" stroke="black" stroke-width="4"/>
<path d="M715.104 850.237C721.755 798.931 709.166 602.019 688.976 508.194C650.021 520.545 609.007 512.55 590.401 505.82C539.332 644.776 484.7 774.229 482.325 858.551C500.139 869.241 515.579 871.616 533.394 863.301C564.273 780.167 603.861 672.882 633.156 592.518C639.807 622.922 647.408 788.48 664.035 866.864C674.724 857.364 690.164 847.863 715.104 850.237Z" fill="#C4C4C4"/>
<path d="M633.156 592.518C639.807 622.922 647.408 788.48 664.035 866.864C674.724 857.364 690.164 847.863 715.104 850.237C721.755 798.931 709.166 602.019 688.976 508.194C650.021 520.545 609.007 512.55 590.401 505.82C539.332 644.776 484.7 774.229 482.325 858.551C500.139 869.241 515.579 871.616 533.394 863.301C564.273 780.167 603.861 672.882 633.156 592.518ZM633.156 592.518L642.658 568.764" stroke="black" stroke-width="4"/>
<path d="M544.082 615.083C540.427 607.773 542.103 593.31 544.082 586.58C547.645 587.767 550.021 587.767 557.147 591.33L563.085 591.331C563.085 594.894 562.61 602.257 560.71 603.207C558.809 604.157 557.182 604.395 556.606 604.395C558.204 612.158 562.224 619.507 559.522 622.209C555.959 625.773 546.458 619.834 544.082 615.083Z" fill="white"/>
<path d="M557.147 591.33C550.021 587.767 547.645 587.767 544.082 586.58C542.103 593.31 540.427 607.773 544.082 615.083C546.458 619.834 555.959 625.773 559.522 622.209C562.224 619.507 558.204 612.158 556.606 604.395M557.147 591.33L563.085 591.331C563.085 594.894 562.61 602.257 560.71 603.207C558.809 604.157 557.182 604.395 556.606 604.395M557.147 591.33C555.454 595.563 555.721 600.097 556.606 604.395" stroke="black" stroke-width="4"/>
<path d="M617.717 364.489C634.819 350.237 643.054 351.425 645.033 353.8C643.845 357.363 661.66 375.178 669.974 356.175C729.356 369.24 735.294 410.411 744.796 440.499C764.59 431.789 804.891 414.845 807.741 416.746C811.304 419.121 821.993 440.499 819.618 453.563C817.242 466.627 756.672 514.133 736.482 514.133C720.33 514.133 703.046 479.295 696.423 461.876C695.867 480.533 694.013 498.091 692.539 508.195C686.601 508.986 671.161 511.283 656.91 514.133C642.658 516.983 615.882 512.154 604.275 509.382C587.368 553.215 564.569 589.847 563.085 591.33C561.185 593.23 547.25 587.371 540.52 584.204C536.165 581.037 531.256 557.838 546.458 490.38C565.46 406.057 596.339 382.304 617.717 364.489Z" fill="#FFFEF9"/>
<path d="M622.468 428.622C622.468 454.1 614.435 483.041 604.275 509.382M604.275 509.382C587.368 553.215 564.569 589.847 563.085 591.33C561.185 593.23 547.25 587.371 540.52 584.204C536.165 581.037 531.256 557.838 546.458 490.38C565.46 406.057 596.339 382.304 617.717 364.489C634.819 350.237 643.054 351.425 645.033 353.8C643.845 357.363 661.66 375.178 669.974 356.175C729.356 369.24 735.294 410.411 744.796 440.499C764.59 431.789 804.891 414.845 807.741 416.746C811.304 419.121 821.993 440.499 819.618 453.563C817.242 466.627 756.672 514.133 736.482 514.133C720.33 514.133 703.046 479.295 696.423 461.876M604.275 509.382C615.882 512.154 642.658 516.983 656.91 514.133C671.161 511.283 686.601 508.986 692.539 508.195C694.013 498.091 695.867 480.533 696.423 461.876M693.727 414.37C696.396 428.163 696.913 445.446 696.423 461.876" stroke="black" stroke-width="4"/>
<path d="M710.354 312.232C710.977 301.628 709.562 281.353 706.791 274.228C694.914 276.999 669.973 283.016 665.223 284.916C660.472 286.817 657.305 307.086 655.722 320.546C655.326 322.921 654.534 333.61 654.534 338.361C654.534 344.299 649.783 347.862 645.033 353.8C646.22 358.551 649.783 362.246 654.534 363.301C659.878 364.489 666.411 363.301 669.973 358.551C669.973 347.862 675.134 342.715 676.527 339.548C680.048 342.995 684.99 346.282 691.351 345.487C700.779 344.308 709.166 332.422 710.354 312.232Z" fill="white"/>
<path d="M672.349 334.798C673.395 336.106 674.788 337.847 676.527 339.548M676.527 339.548C680.048 342.995 684.99 346.282 691.351 345.487C700.779 344.308 709.166 332.422 710.354 312.232C710.977 301.628 709.562 281.353 706.791 274.228C694.914 276.999 669.973 283.016 665.223 284.916C660.472 286.817 657.305 307.086 655.722 320.546C655.326 322.921 654.534 333.61 654.534 338.361C654.534 344.299 649.783 347.862 645.033 353.8C646.22 358.551 649.783 362.246 654.534 363.301C659.878 364.489 666.411 363.301 669.973 358.551C669.973 347.862 675.134 342.715 676.527 339.548Z" stroke="black" stroke-width="4" stroke-linecap="round" stroke-linejoin="round"/>
<path d="M704.415 308.669C705.207 313.024 705.759 320.39 704.415 321.734C703.228 322.921 698.477 322.921 696.102 322.921" stroke="black" stroke-width="4" stroke-linecap="round"/>
<path d="M671.161 318.17C667.598 322.921 662.848 326.484 655.722 328.859C652.159 326.484 636.72 302.731 641.47 289.667C646.221 276.603 660.472 265.914 681.85 257.6C703.228 249.287 710.354 261.163 711.541 263.539C712.729 265.914 712.261 274.226 707.978 274.227C706.791 274.228 707.978 274.228 705.603 274.227C704.415 278.186 702.04 284.917 698.477 290.855C694.071 298.199 690.164 301.544 683.038 306.294C679.871 303.127 676.38 299.168 672.349 299.168C669.974 299.168 666.411 302.731 666.411 307.482C666.411 312.232 668.786 314.608 671.161 318.17Z" fill="black" stroke="black" stroke-width="4"/>
<path d="M508.453 953.563C496.577 947.625 472.586 933.61 471.636 925.059C470.921 918.623 478.683 896.534 485.605 878.742C498.952 888.243 521.517 885.867 521.517 885.867L516.767 901.306C525.08 922.685 554.297 950 552.396 950C550.496 950 522.309 952.375 508.453 953.563Z" fill="#6A8A94" stroke="black" stroke-width="4"/>
<path d="M490.638 863.302C490.638 866.074 489.926 873.279 487.075 879.93" stroke="black" stroke-width="4"/>
<path d="M528.643 864.49C526.268 866.865 521.28 873.279 520.329 879.929C519.379 886.58 519.142 886.659 519.142 885.868" stroke="black" stroke-width="4"/>
<path d="M307.694 340.864L271 337.272L387 275L369.245 340.864H343.204L317.163 372L307.694 340.864Z" fill="white"/>
<path d="M307.694 340.864L271 337.272L387 275M307.694 340.864L317.163 372M307.694 340.864L387 275M317.163 372L331.367 340.864M317.163 372L343.204 340.864M331.367 340.864L387 275M331.367 340.864H343.204M387 275L369.245 340.864H343.204" stroke="black" stroke-width="4" stroke-linecap="round" stroke-linejoin="round"/>
<circle cx="353" cy="733" r="18" fill="#ED4F39"/>
</svg>
