<svg width="1080" height="1080" viewBox="0 0 1080 1080" fill="none" xmlns="http://www.w3.org/2000/svg">
<rect width="1080" height="1080" fill="white"/>
<path d="M481.474 542.66C476.975 553.332 469.327 582.346 474.726 604C457.48 595.541 415.116 577.496 383.624 582.008C387.935 567.158 392.846 533.06 378 515.466C390.934 453.436 437.61 337.948 520.839 372.233C525.068 390.798 529.141 413.321 531.653 435.955C539.295 445.542 554.018 470.241 551.769 492.346L533.648 494.038C530.896 533.143 517.13 559.269 481.474 542.66Z" fill="white"/>
<path d="M481.474 542.66C479.306 541.65 477.058 540.483 474.726 539.15L481.474 542.66ZM481.474 542.66C476.975 553.332 469.327 582.346 474.726 604C457.48 595.541 415.116 577.496 383.624 582.008C387.935 567.158 392.846 533.06 378 515.466C390.934 453.436 437.61 337.948 520.839 372.233C525.068 390.798 529.141 413.321 531.653 435.955M481.474 542.66C517.13 559.269 530.896 533.143 533.649 494.038M531.653 435.955C539.295 445.542 554.018 470.241 551.769 492.346L533.649 494.038M531.653 435.955C533.892 456.136 534.89 476.406 533.649 494.038" stroke="black" stroke-width="4" stroke-linecap="round"/>
<path d="M288 778H553C537.28 634.511 494.61 588.932 385.129 581C353.127 593.434 311.699 671.97 288 778Z" fill="#23268C" stroke="black" stroke-width="4"/>
<path d="M357 777C357 689.517 496.547 562.219 541 777" stroke="black" stroke-width="4"/>
<path d="M556 777V340H792V777H556Z" stroke="black" stroke-width="4"/>
<path d="M733 340.143C710.264 338.269 673.248 354.199 655.21 422.792C647.882 440.221 625.785 464.735 634.354 475.08C642.922 485.425 647.694 489.51 649.573 491.385C651.264 503.191 644.5 517.247 658.592 532.428C668.592 543.2 692.978 532.428 680.013 583.591C642.245 599.896 580.803 646.561 556 777" stroke="black" stroke-width="4"/>
<path d="M407.597 493.373C384.61 520.808 371.727 516.423 368.159 510.801C330.749 491.011 325.904 459.828 328.157 446.71C303.368 395.437 334.73 374.748 353.511 370.813C371.089 315.493 405.907 318.154 421.119 326.399C453.571 287.72 490.981 301.662 505.629 313.469C557.011 335.507 527.038 372.874 505.629 388.803C493.91 410.392 476.708 416.164 469.571 416.351C434.415 415.002 439.523 440.526 446.472 453.456C436.105 486.289 416.236 493.747 407.597 493.373Z" fill="black" stroke="black" stroke-width="4"/>
</svg>
