<svg width="1080" height="1080" viewBox="0 0 1080 1080" fill="none" xmlns="http://www.w3.org/2000/svg">
<rect width="1080" height="1080" fill="white"/>
<path d="M456.94 415.308C455.596 421.411 466.458 425.762 472.058 427.175L645.078 415.308C647.878 414.743 653.645 412.257 654.317 406.832C655.157 400.051 634.159 384.793 627.44 376.317C620.721 367.841 619.881 339.869 607.283 286.467C594.684 233.066 549.329 232.219 530.851 234.761C512.373 237.304 494.735 252.562 487.176 274.601C479.166 297.954 476.257 370.384 475.417 379.708C473.967 395.813 458.619 407.68 456.94 415.308Z" fill="black" stroke="black" stroke-width="2"/>
<path d="M538.816 385.57C541.347 379.595 540.503 377.034 540.503 371.059C544.551 371.059 556.528 370.205 564.118 364.23C564.961 371.059 569.062 379.845 571.708 383.863C576.769 391.545 593.574 399.654 601.164 402.214C607.349 413.88 601.733 431.833 586.889 432.516C568.335 433.37 548.937 440.198 529.539 440.198C514.021 440.198 507.715 418.79 511.088 406.555C516.148 403.71 536.741 390.472 538.816 385.57Z" fill="#FFFEF9" stroke="black" stroke-width="2"/>
<path d="M269.076 715.852C320.083 677.869 468.763 649.652 491.553 646.396C513.258 657.249 544.731 657.249 564.265 657.249C582.683 657.249 621.422 651.823 643.489 646.396C653.256 655.078 674.961 665.536 691.24 672.442C727.053 687.636 765.037 688.359 781.316 683.295C809.533 690.892 914.802 766.859 922.399 803.758C929.996 840.657 825.812 887.323 717.286 909.028C632.509 925.983 531.866 902.927 489.116 888.36C488.637 889.316 486.367 891.001 480.701 893.834C465.507 901.431 397.136 900.346 317.913 897.09C238.689 893.834 201.791 855.85 194.194 822.207C186.597 788.564 218.069 753.836 269.076 715.852Z" fill="#6DB8BB"/>
<path d="M486.127 887.323C489.383 886.961 492.856 887.757 480.701 893.834C465.507 901.431 397.136 900.346 317.913 897.09C238.689 893.834 201.791 855.85 194.194 822.207C186.597 788.564 218.069 753.836 269.076 715.852C320.083 677.869 468.763 649.652 491.553 646.396C513.258 657.249 544.731 657.249 564.265 657.249C582.683 657.249 621.422 651.823 643.489 646.396C653.256 655.078 674.961 665.536 691.24 672.442C727.053 687.636 765.037 688.359 781.316 683.295C809.533 690.892 914.802 766.859 922.399 803.758C929.996 840.657 825.812 887.323 717.286 909.028C630.466 926.392 527.005 901.793 486.127 887.323ZM486.127 887.323L447.058 878.641C444.887 874.3 440.546 862.796 440.546 851.509C440.546 840.223 444.887 830.889 447.058 827.634C468.553 822.952 506.9 815.215 544.731 808.931M817.13 803.758C803.383 800.502 770.029 793.774 746.588 792.905C717.286 791.82 678.217 795.076 617.443 799.417C597.426 800.847 571.205 804.533 544.731 808.931M336.362 772.286C351.556 771.2 388.559 774.322 417.756 776.627C458.996 779.882 490.468 787.479 511.088 792.905C516.965 794.452 536.049 803.589 544.731 808.931" stroke="black" stroke-width="4" stroke-linecap="round" stroke-linejoin="round"/>
<path d="M734.651 762.52C722.496 765.124 705.71 783.139 698.837 791.821V793.992C707.881 792.907 728.356 792.907 737.906 792.907C747.457 792.907 778.784 796.162 793.254 798.333C796.148 796.162 803.974 792.294 808.448 788.566C814.959 783.139 839.92 760.348 838.835 753.837C837.93 748.41 833.409 745.373 826.897 744.07C818.215 742.333 789.998 757.093 781.316 759.264C772.634 761.434 749.844 759.264 734.651 762.52Z" fill="#FFFEF9" stroke="black" stroke-width="4"/>
<path d="M428.609 833.06C432.444 836.128 438.738 837.401 441.632 837.401V854.766C441.632 858.238 443.802 867.065 444.888 871.044H428.609C415.586 871.044 375.431 856.936 354.812 848.254C334.192 839.572 310.316 813.526 292.952 798.332C279.061 786.177 261.841 776.627 254.968 773.371C254.606 771.924 255.402 767.728 261.48 762.519C269.077 756.007 279.929 758.178 301.634 764.689C321.493 770.647 337.447 780.968 354.812 786.394C372.176 791.821 375.431 790.735 386.284 790.735C401.045 790.735 406.904 815.696 428.609 833.06Z" fill="#FFFEF9" stroke="black" stroke-width="4"/>
<path d="M556.669 433.687C534.964 436.291 517.238 415.961 511.088 405.47C481.786 415.237 461.166 419.578 428.609 449.965C389.54 486.43 370.005 518.336 365.664 531.359C383.752 546.191 404.733 557.406 426.438 563.917C438.376 542.212 449.229 531.359 464.422 525.933C478.531 544.383 481.784 583.711 482.872 591.048C487.213 620.35 491.554 643.007 491.554 647.482C491.554 649.652 500.236 659.661 565.351 657.249C623.954 655.078 653.256 645.311 657.597 637.714C661.938 630.118 661.938 499.887 665.194 499.887C667.799 499.887 681.473 515.081 691.24 531.359C719.457 516.166 747.673 487.949 747.673 483.608C747.673 478.182 709.69 438.028 691.24 428.26C676.481 420.447 626.125 411.982 598.994 398.958C593.929 409.449 578.374 431.082 556.669 433.687Z" fill="#FEF9F3" stroke="black" stroke-width="4"/>
<path d="M514.708 300.635C520.004 292.919 534.256 266.341 534.256 249.194C539.922 259.196 552.784 281.087 558.904 288.632C566.553 298.063 587.801 310.923 590.351 311.781C592.9 310.066 595.655 308.893 598.85 310.066C602.25 311.315 602.25 315.612 602.25 319.497C602.25 324.641 594.317 327.499 590.351 327.213C590.351 328.928 587.801 337.502 584.401 345.218C580.932 353.092 569.103 370.081 547.005 372.653C532.556 374.335 520.657 367.509 513.858 361.508C503.766 352.6 497.71 338.645 496.86 331.5C496.576 332.357 494.82 333.386 490.06 334.072C484.111 334.93 484.111 324.641 486.661 319.497C488.599 315.587 493.46 315.782 494.31 319.497C500.543 318.926 508.759 309.304 514.708 300.635Z" fill="#FFFEF9" stroke="black" stroke-width="4"/>
<path d="M394.966 627.947L423.183 562.832C417.756 561.385 404.516 557.405 394.966 553.064C385.416 548.723 377.24 540.403 374.346 536.786C365.664 555.235 347.432 595.606 343.959 609.498C339.618 626.862 332.021 656.164 332.021 674.613C332.021 685.52 334.192 696.318 348.3 699.574L348.403 699.597C365.142 703.46 395.077 710.369 449.229 682.21C475.421 668.59 530.984 610.221 556.669 581.281C556.669 581.281 562.819 580.557 564.266 567.173C565.713 553.788 568.607 525.282 568.607 518.336C568.607 509.654 564.266 496.631 559.925 495.546C555.584 494.461 548.955 512.009 546.902 521.592C543.646 536.786 541.475 553.065 539.305 567.173L394.966 627.947Z" fill="#FFFEF9"/>
<path d="M394.966 627.947L423.183 562.832C417.756 561.385 404.516 557.405 394.966 553.064C385.416 548.723 377.24 540.403 374.346 536.786C365.664 555.235 347.432 595.606 343.959 609.498C339.618 626.862 332.021 656.164 332.021 674.613C332.021 685.52 334.192 696.318 348.3 699.574C365.02 703.432 394.966 710.426 449.229 682.21C475.421 668.59 530.984 610.221 556.669 581.281C556.669 581.281 562.819 580.557 564.266 567.173C565.713 553.788 568.607 525.282 568.607 518.336C568.607 509.654 564.266 496.631 559.925 495.546C555.584 494.461 548.955 512.009 546.902 521.592C543.646 536.786 541.475 553.065 539.305 567.173L394.966 627.947ZM394.966 627.947L386.284 634.458" stroke="black" stroke-width="4"/>
<path d="M723.798 622.521C723.798 622.521 712.945 559.576 695.581 528.104C706.434 522.677 708.604 520.507 720.542 511.825C732.48 503.143 736.821 498.802 742.247 493.376C755.27 512.862 766.123 542.261 774.805 576.988C783.487 611.716 793.254 680.039 779.146 683.295C762.426 687.153 732.48 686.551 669.535 663.76C641.776 653.71 602.973 609.184 577.289 580.244C577.289 580.244 571.139 579.52 569.692 566.136C568.245 552.751 565.351 524.245 565.351 517.299C565.351 508.617 569.692 495.594 574.033 494.509C578.374 493.424 585.003 510.972 587.056 520.555C590.312 535.749 592.483 552.028 594.653 566.136L723.798 622.521Z" fill="#FFFEF9"/>
<path d="M723.798 622.521C723.798 622.521 712.945 559.576 695.581 528.104C706.434 522.677 708.604 520.507 720.542 511.825C732.48 503.143 736.821 498.802 742.247 493.376C755.27 512.862 766.123 542.261 774.805 576.988C783.487 611.716 793.254 680.039 779.146 683.295C762.426 687.153 732.48 686.551 669.535 663.76C641.776 653.71 602.973 609.184 577.289 580.244C577.289 580.244 571.139 579.52 569.692 566.136C568.245 552.751 565.351 524.245 565.351 517.299C565.351 508.617 569.692 495.594 574.033 494.509C578.374 493.424 585.003 510.972 587.056 520.555C590.312 535.749 592.483 552.028 594.653 566.136L723.798 622.521ZM723.798 622.521L732.48 629.032" stroke="black" stroke-width="4"/>
<path fill-rule="evenodd" clip-rule="evenodd" d="M363.494 532.445L354.518 533.501C291.352 538.121 253.488 549.571 224.516 558.332C222.874 558.828 221.261 559.316 219.673 559.793C212.594 561.922 207.463 563.971 204.018 565.822C203.85 565.912 203.688 566.001 203.534 566.087C204.393 566.567 205.441 567.101 206.709 567.68C215.669 571.768 230.901 575.977 252.269 579.918C273.424 583.819 299.9 587.337 330.911 590.296C392.924 596.213 469.226 599.529 548.288 599.722C627.346 599.914 704.693 596.973 768.637 591.36C833.053 585.705 879.083 577.74 900.942 569.163C903.83 568.03 906.018 566.989 907.635 566.088C905.109 564.677 901.427 563.064 896.353 561.343C870.639 552.621 834.393 544.172 768.721 538.922L766.123 537.871L757.441 517.286H770.451C837.374 522.636 875.472 531.34 903.325 540.788C910.42 543.194 916.535 545.869 921.205 548.945C925.506 551.779 930.674 556.325 931.909 563.196C933.303 570.959 929.008 576.874 924.917 580.434C920.821 584 915.187 586.89 908.87 589.369C883.739 599.229 834.781 607.342 770.535 612.982C705.816 618.663 627.804 621.621 548.235 621.427C468.669 621.233 391.678 617.898 328.849 611.903C297.438 608.906 270.299 605.314 248.332 601.263C226.579 597.251 209.184 592.666 197.701 587.428C192.107 584.876 186.756 581.666 183.226 577.336C181.354 575.039 179.723 572.093 179.185 568.53C178.629 564.857 179.366 561.388 180.884 558.409C183.638 553.003 188.867 549.323 193.743 546.703C198.971 543.894 205.626 541.352 213.422 539.008C215.007 538.531 216.62 538.043 218.266 537.546C247.68 528.651 287.371 516.649 352.935 511.854L373.261 510.74L363.494 532.445Z" fill="url(#paint0_linear)"/>
<defs>
<linearGradient id="paint0_linear" x1="679.303" y1="620.35" x2="681.473" y2="510.74" gradientUnits="userSpaceOnUse">
<stop offset="0.696417" stop-color="#ED9A39"/>
<stop offset="1" stop-color="#ED9A39" stop-opacity="0"/>
</linearGradient>
</defs>
</svg>
