<?xml version="1.0" standalone="no"?><!DOCTYPE svg PUBLIC "-//W3C//DTD SVG 1.1//EN" "http://www.w3.org/Graphics/SVG/1.1/DTD/svg11.dtd"><svg t="1609221664736" class="icon" viewBox="0 0 1024 1024" version="1.1" xmlns="http://www.w3.org/2000/svg" p-id="6808" xmlns:xlink="http://www.w3.org/1999/xlink" width="200" height="200"><defs><style type="text/css"></style></defs><path d="M128 85.333333h298.666667a42.666667 42.666667 0 0 1 42.666666 42.666667v298.666667a42.666667 42.666667 0 0 1-42.666666 42.666666H128a42.666667 42.666667 0 0 1-42.666667-42.666666V128a42.666667 42.666667 0 0 1 42.666667-42.666667z m0 469.333334h298.666667a42.666667 42.666667 0 0 1 42.666666 42.666666v298.666667a42.666667 42.666667 0 0 1-42.666666 42.666667H128a42.666667 42.666667 0 0 1-42.666667-42.666667V597.333333a42.666667 42.666667 0 0 1 42.666667-42.666666zM597.333333 85.333333h298.666667a42.666667 42.666667 0 0 1 42.666667 42.666667v298.666667a42.666667 42.666667 0 0 1-42.666667 42.666666H597.333333a42.666667 42.666667 0 0 1-42.666666-42.666666V128a42.666667 42.666667 0 0 1 42.666666-42.666667z m0 469.333334h298.666667a42.666667 42.666667 0 0 1 42.666667 42.666666v298.666667a42.666667 42.666667 0 0 1-42.666667 42.666667H597.333333a42.666667 42.666667 0 0 1-42.666666-42.666667V597.333333a42.666667 42.666667 0 0 1 42.666666-42.666666z" p-id="6809" fill="#515151"></path></svg>